<mxfile host="app.diagrams.net" agent="Mozilla/5.0 (Windows NT 10.0; Win64; x64) AppleWebKit/537.36 (KHTML, like Gecko) Chrome/128.0.0.0 Safari/537.36" version="24.7.10">
  <diagram name="Page-1" id="5rLeiptIBDLNpGo8e4B9">
    <mxGraphModel dx="778" dy="421" grid="0" gridSize="10" guides="1" tooltips="1" connect="1" arrows="1" fold="1" page="1" pageScale="1" pageWidth="827" pageHeight="1169" math="0" shadow="0">
      <root>
        <mxCell id="0" />
        <mxCell id="1" parent="0" />
        <mxCell id="SrVnToK5ww4ijatAAMLY-1" value="" style="rounded=0;whiteSpace=wrap;html=1;" parent="1" vertex="1">
          <mxGeometry x="176" y="351" width="179" height="321" as="geometry" />
        </mxCell>
        <mxCell id="SrVnToK5ww4ijatAAMLY-2" value="" style="rounded=0;whiteSpace=wrap;html=1;" parent="1" vertex="1">
          <mxGeometry x="425" y="378" width="179" height="294" as="geometry" />
        </mxCell>
        <mxCell id="SrVnToK5ww4ijatAAMLY-3" value="" style="rounded=0;whiteSpace=wrap;html=1;" parent="1" vertex="1">
          <mxGeometry x="670" y="378" width="179" height="294" as="geometry" />
        </mxCell>
        <mxCell id="SrVnToK5ww4ijatAAMLY-4" value="" style="rounded=0;whiteSpace=wrap;html=1;" parent="1" vertex="1">
          <mxGeometry x="915" y="378" width="179" height="294" as="geometry" />
        </mxCell>
        <mxCell id="SrVnToK5ww4ijatAAMLY-5" value="" style="rounded=0;whiteSpace=wrap;html=1;" parent="1" vertex="1">
          <mxGeometry x="1188" y="285" width="179" height="294" as="geometry" />
        </mxCell>
        <mxCell id="SrVnToK5ww4ijatAAMLY-6" value="" style="endArrow=classic;html=1;rounded=0;strokeWidth=4;strokeColor=#08FF18;" parent="1" source="SrVnToK5ww4ijatAAMLY-36" edge="1">
          <mxGeometry width="50" height="50" relative="1" as="geometry">
            <mxPoint x="132" y="214" as="sourcePoint" />
            <mxPoint x="1466" y="206" as="targetPoint" />
          </mxGeometry>
        </mxCell>
        <mxCell id="SrVnToK5ww4ijatAAMLY-7" value="&lt;b&gt;&lt;font style=&quot;font-size: 16px;&quot;&gt;Input&lt;/font&gt;&lt;/b&gt;" style="rounded=0;whiteSpace=wrap;html=1;" parent="1" vertex="1">
          <mxGeometry x="237" y="744" width="57" height="56" as="geometry" />
        </mxCell>
        <mxCell id="SrVnToK5ww4ijatAAMLY-10" value="" style="endArrow=classic;html=1;rounded=0;exitX=0.5;exitY=0;exitDx=0;exitDy=0;strokeWidth=4;strokeColor=#9C9C9C;entryX=0.5;entryY=1;entryDx=0;entryDy=0;" parent="1" source="SrVnToK5ww4ijatAAMLY-7" target="SrVnToK5ww4ijatAAMLY-14" edge="1">
          <mxGeometry width="50" height="50" relative="1" as="geometry">
            <mxPoint x="215" y="623" as="sourcePoint" />
            <mxPoint x="260" y="632" as="targetPoint" />
          </mxGeometry>
        </mxCell>
        <mxCell id="SrVnToK5ww4ijatAAMLY-12" value="" style="endArrow=none;html=1;rounded=0;strokeWidth=4;strokeColor=#ABABAB;" parent="1" edge="1">
          <mxGeometry width="50" height="50" relative="1" as="geometry">
            <mxPoint x="266" y="707" as="sourcePoint" />
            <mxPoint x="1007" y="707" as="targetPoint" />
          </mxGeometry>
        </mxCell>
        <mxCell id="SrVnToK5ww4ijatAAMLY-13" value="" style="endArrow=classic;html=1;rounded=0;strokeWidth=4;strokeColor=#9C9C9C;entryX=0.5;entryY=1;entryDx=0;entryDy=0;" parent="1" target="SrVnToK5ww4ijatAAMLY-17" edge="1">
          <mxGeometry width="50" height="50" relative="1" as="geometry">
            <mxPoint x="1005" y="705" as="sourcePoint" />
            <mxPoint x="1009" y="608" as="targetPoint" />
          </mxGeometry>
        </mxCell>
        <mxCell id="SrVnToK5ww4ijatAAMLY-14" value="&lt;b&gt;&lt;font style=&quot;font-size: 16px;&quot;&gt;X&lt;/font&gt;&lt;/b&gt;" style="rounded=0;whiteSpace=wrap;html=1;" parent="1" vertex="1">
          <mxGeometry x="235" y="554" width="61" height="43" as="geometry" />
        </mxCell>
        <mxCell id="SrVnToK5ww4ijatAAMLY-15" value="&lt;b&gt;&lt;font style=&quot;font-size: 16px;&quot;&gt;X&lt;/font&gt;&lt;/b&gt;" style="rounded=0;whiteSpace=wrap;html=1;" parent="1" vertex="1">
          <mxGeometry x="486" y="554" width="61" height="43" as="geometry" />
        </mxCell>
        <mxCell id="SrVnToK5ww4ijatAAMLY-16" value="&lt;b&gt;&lt;font style=&quot;font-size: 16px;&quot;&gt;X&lt;/font&gt;&lt;/b&gt;" style="rounded=0;whiteSpace=wrap;html=1;" parent="1" vertex="1">
          <mxGeometry x="729" y="554" width="61" height="43" as="geometry" />
        </mxCell>
        <mxCell id="SrVnToK5ww4ijatAAMLY-17" value="&lt;b&gt;&lt;font style=&quot;font-size: 16px;&quot;&gt;X&lt;/font&gt;&lt;/b&gt;" style="rounded=0;whiteSpace=wrap;html=1;" parent="1" vertex="1">
          <mxGeometry x="974" y="554" width="61" height="43" as="geometry" />
        </mxCell>
        <mxCell id="SrVnToK5ww4ijatAAMLY-19" value="" style="endArrow=none;html=1;rounded=0;strokeColor=#CC4EBB;strokeWidth=5;" parent="1" edge="1">
          <mxGeometry width="50" height="50" relative="1" as="geometry">
            <mxPoint x="83" y="637" as="sourcePoint" />
            <mxPoint x="946" y="637" as="targetPoint" />
          </mxGeometry>
        </mxCell>
        <mxCell id="SrVnToK5ww4ijatAAMLY-20" value="" style="curved=1;endArrow=classic;html=1;rounded=0;strokeColor=#CC4EBB;strokeWidth=5;" parent="1" edge="1">
          <mxGeometry width="50" height="50" relative="1" as="geometry">
            <mxPoint x="945" y="637" as="sourcePoint" />
            <mxPoint x="974" y="576" as="targetPoint" />
            <Array as="points">
              <mxPoint x="974" y="626" />
              <mxPoint x="924" y="576" />
            </Array>
          </mxGeometry>
        </mxCell>
        <mxCell id="SrVnToK5ww4ijatAAMLY-22" value="" style="curved=1;endArrow=classic;html=1;rounded=0;strokeColor=#CC4EBB;strokeWidth=5;" parent="1" edge="1">
          <mxGeometry width="50" height="50" relative="1" as="geometry">
            <mxPoint x="700" y="637" as="sourcePoint" />
            <mxPoint x="729" y="576" as="targetPoint" />
            <Array as="points">
              <mxPoint x="729" y="626" />
              <mxPoint x="679" y="576" />
            </Array>
          </mxGeometry>
        </mxCell>
        <mxCell id="SrVnToK5ww4ijatAAMLY-23" value="" style="curved=1;endArrow=classic;html=1;rounded=0;strokeColor=#CC4EBB;strokeWidth=5;" parent="1" edge="1">
          <mxGeometry width="50" height="50" relative="1" as="geometry">
            <mxPoint x="457" y="637" as="sourcePoint" />
            <mxPoint x="486" y="576" as="targetPoint" />
            <Array as="points">
              <mxPoint x="486" y="626" />
              <mxPoint x="436" y="576" />
            </Array>
          </mxGeometry>
        </mxCell>
        <mxCell id="SrVnToK5ww4ijatAAMLY-24" value="" style="curved=1;endArrow=classic;html=1;rounded=0;strokeColor=#CC4EBB;strokeWidth=5;" parent="1" edge="1">
          <mxGeometry width="50" height="50" relative="1" as="geometry">
            <mxPoint x="206" y="637" as="sourcePoint" />
            <mxPoint x="235" y="576" as="targetPoint" />
            <Array as="points">
              <mxPoint x="235" y="626" />
              <mxPoint x="185" y="576" />
            </Array>
          </mxGeometry>
        </mxCell>
        <mxCell id="SrVnToK5ww4ijatAAMLY-25" value="&lt;font style=&quot;font-size: 16px;&quot;&gt;&lt;b&gt;h&lt;sub&gt;t-1&lt;/sub&gt;&lt;/b&gt;&lt;/font&gt;" style="text;html=1;align=center;verticalAlign=middle;whiteSpace=wrap;rounded=0;" parent="1" vertex="1">
          <mxGeometry x="102" y="603" width="60" height="30" as="geometry" />
        </mxCell>
        <mxCell id="SrVnToK5ww4ijatAAMLY-26" value="&lt;b&gt;&lt;font style=&quot;font-size: 16px;&quot;&gt;SF&lt;/font&gt;&lt;/b&gt;" style="rounded=0;whiteSpace=wrap;html=1;" parent="1" vertex="1">
          <mxGeometry x="233" y="431" width="65" height="60" as="geometry" />
        </mxCell>
        <mxCell id="SrVnToK5ww4ijatAAMLY-27" value="&lt;b&gt;&lt;font style=&quot;font-size: 16px;&quot;&gt;SF&lt;/font&gt;&lt;/b&gt;" style="rounded=0;whiteSpace=wrap;html=1;" parent="1" vertex="1">
          <mxGeometry x="484" y="433" width="65" height="60" as="geometry" />
        </mxCell>
        <mxCell id="SrVnToK5ww4ijatAAMLY-49" style="edgeStyle=orthogonalEdgeStyle;rounded=0;orthogonalLoop=1;jettySize=auto;html=1;exitX=1;exitY=0.5;exitDx=0;exitDy=0;entryX=0;entryY=0.5;entryDx=0;entryDy=0;strokeWidth=4;strokeColor=#9C9C9C;" parent="1" source="SrVnToK5ww4ijatAAMLY-28" target="SrVnToK5ww4ijatAAMLY-47" edge="1">
          <mxGeometry relative="1" as="geometry" />
        </mxCell>
        <mxCell id="SrVnToK5ww4ijatAAMLY-28" value="&lt;b&gt;&lt;font style=&quot;font-size: 16px;&quot;&gt;SF&lt;/font&gt;&lt;/b&gt;" style="rounded=0;whiteSpace=wrap;html=1;" parent="1" vertex="1">
          <mxGeometry x="970" y="433" width="65" height="60" as="geometry" />
        </mxCell>
        <mxCell id="SrVnToK5ww4ijatAAMLY-29" value="&lt;b&gt;&lt;font style=&quot;font-size: 16px;&quot;&gt;Tanh&lt;/font&gt;&lt;/b&gt;" style="rounded=0;whiteSpace=wrap;html=1;" parent="1" vertex="1">
          <mxGeometry x="725" y="433" width="65" height="60" as="geometry" />
        </mxCell>
        <mxCell id="SrVnToK5ww4ijatAAMLY-48" style="edgeStyle=orthogonalEdgeStyle;rounded=0;orthogonalLoop=1;jettySize=auto;html=1;entryX=0.5;entryY=0;entryDx=0;entryDy=0;strokeWidth=4;strokeColor=#9C9C9C;" parent="1" source="SrVnToK5ww4ijatAAMLY-30" target="SrVnToK5ww4ijatAAMLY-47" edge="1">
          <mxGeometry relative="1" as="geometry" />
        </mxCell>
        <mxCell id="SrVnToK5ww4ijatAAMLY-30" value="&lt;b&gt;&lt;font style=&quot;font-size: 16px;&quot;&gt;Tanh&lt;/font&gt;&lt;/b&gt;" style="rounded=0;whiteSpace=wrap;html=1;" parent="1" vertex="1">
          <mxGeometry x="1240" y="345" width="65" height="60" as="geometry" />
        </mxCell>
        <mxCell id="SrVnToK5ww4ijatAAMLY-31" value="" style="endArrow=classic;html=1;rounded=0;entryX=0.5;entryY=1;entryDx=0;entryDy=0;exitX=0.5;exitY=0;exitDx=0;exitDy=0;strokeWidth=4;strokeColor=#9C9C9C;" parent="1" source="SrVnToK5ww4ijatAAMLY-14" target="SrVnToK5ww4ijatAAMLY-26" edge="1">
          <mxGeometry width="50" height="50" relative="1" as="geometry">
            <mxPoint x="259" y="554" as="sourcePoint" />
            <mxPoint x="309" y="504" as="targetPoint" />
          </mxGeometry>
        </mxCell>
        <mxCell id="SrVnToK5ww4ijatAAMLY-32" value="" style="endArrow=classic;html=1;rounded=0;strokeWidth=4;strokeColor=#9C9C9C;" parent="1" edge="1">
          <mxGeometry width="50" height="50" relative="1" as="geometry">
            <mxPoint x="264" y="431" as="sourcePoint" />
            <mxPoint x="264" y="214" as="targetPoint" />
          </mxGeometry>
        </mxCell>
        <mxCell id="SrVnToK5ww4ijatAAMLY-35" value="" style="endArrow=classic;html=1;rounded=0;strokeWidth=4;strokeColor=#08FF18;" parent="1" target="SrVnToK5ww4ijatAAMLY-34" edge="1">
          <mxGeometry width="50" height="50" relative="1" as="geometry">
            <mxPoint x="82" y="214" as="sourcePoint" />
            <mxPoint x="1403" y="206" as="targetPoint" />
          </mxGeometry>
        </mxCell>
        <mxCell id="SrVnToK5ww4ijatAAMLY-34" value="&lt;b&gt;&lt;font style=&quot;font-size: 16px;&quot;&gt;X&lt;/font&gt;&lt;/b&gt;" style="rounded=0;whiteSpace=wrap;html=1;" parent="1" vertex="1">
          <mxGeometry x="243.5" y="189" width="44" height="47" as="geometry" />
        </mxCell>
        <mxCell id="SrVnToK5ww4ijatAAMLY-37" value="" style="endArrow=classic;html=1;rounded=0;strokeWidth=4;strokeColor=#08FF18;" parent="1" source="SrVnToK5ww4ijatAAMLY-34" target="SrVnToK5ww4ijatAAMLY-36" edge="1">
          <mxGeometry width="50" height="50" relative="1" as="geometry">
            <mxPoint x="288" y="212" as="sourcePoint" />
            <mxPoint x="1403" y="206" as="targetPoint" />
          </mxGeometry>
        </mxCell>
        <mxCell id="SrVnToK5ww4ijatAAMLY-36" value="&lt;b&gt;&lt;font style=&quot;font-size: 16px;&quot;&gt;SUM&lt;/font&gt;&lt;/b&gt;" style="rounded=0;whiteSpace=wrap;html=1;" parent="1" vertex="1">
          <mxGeometry x="572" y="180" width="120" height="60" as="geometry" />
        </mxCell>
        <mxCell id="SrVnToK5ww4ijatAAMLY-39" value="&lt;b&gt;&lt;font style=&quot;font-size: 16px;&quot;&gt;X&lt;/font&gt;&lt;/b&gt;" style="rounded=0;whiteSpace=wrap;html=1;" parent="1" vertex="1">
          <mxGeometry x="610" y="439.5" width="44" height="47" as="geometry" />
        </mxCell>
        <mxCell id="SrVnToK5ww4ijatAAMLY-40" value="" style="endArrow=classic;html=1;rounded=0;entryX=0;entryY=0.5;entryDx=0;entryDy=0;strokeWidth=4;strokeColor=#9C9C9C;" parent="1" target="SrVnToK5ww4ijatAAMLY-39" edge="1">
          <mxGeometry width="50" height="50" relative="1" as="geometry">
            <mxPoint x="549" y="464" as="sourcePoint" />
            <mxPoint x="599" y="414" as="targetPoint" />
          </mxGeometry>
        </mxCell>
        <mxCell id="SrVnToK5ww4ijatAAMLY-41" value="" style="endArrow=classic;html=1;rounded=0;entryX=1;entryY=0.5;entryDx=0;entryDy=0;exitX=0;exitY=0.5;exitDx=0;exitDy=0;strokeWidth=4;strokeColor=#9C9C9C;" parent="1" source="SrVnToK5ww4ijatAAMLY-29" target="SrVnToK5ww4ijatAAMLY-39" edge="1">
          <mxGeometry width="50" height="50" relative="1" as="geometry">
            <mxPoint x="688" y="496" as="sourcePoint" />
            <mxPoint x="738" y="446" as="targetPoint" />
          </mxGeometry>
        </mxCell>
        <mxCell id="SrVnToK5ww4ijatAAMLY-42" value="" style="endArrow=classic;html=1;rounded=0;exitX=0.5;exitY=0;exitDx=0;exitDy=0;entryX=0.5;entryY=1;entryDx=0;entryDy=0;strokeWidth=4;strokeColor=#08FF18;" parent="1" source="SrVnToK5ww4ijatAAMLY-39" target="SrVnToK5ww4ijatAAMLY-36" edge="1">
          <mxGeometry width="50" height="50" relative="1" as="geometry">
            <mxPoint x="584" y="290" as="sourcePoint" />
            <mxPoint x="634" y="240" as="targetPoint" />
          </mxGeometry>
        </mxCell>
        <mxCell id="SrVnToK5ww4ijatAAMLY-43" value="" style="endArrow=classic;html=1;rounded=0;entryX=0.5;entryY=1;entryDx=0;entryDy=0;exitX=0.5;exitY=0;exitDx=0;exitDy=0;strokeWidth=4;strokeColor=#9C9C9C;" parent="1" source="SrVnToK5ww4ijatAAMLY-15" target="SrVnToK5ww4ijatAAMLY-27" edge="1">
          <mxGeometry width="50" height="50" relative="1" as="geometry">
            <mxPoint x="511" y="554" as="sourcePoint" />
            <mxPoint x="561" y="504" as="targetPoint" />
          </mxGeometry>
        </mxCell>
        <mxCell id="SrVnToK5ww4ijatAAMLY-44" value="" style="endArrow=classic;html=1;rounded=0;entryX=0.5;entryY=1;entryDx=0;entryDy=0;exitX=0.5;exitY=0;exitDx=0;exitDy=0;strokeWidth=4;strokeColor=#9C9C9C;" parent="1" edge="1">
          <mxGeometry width="50" height="50" relative="1" as="geometry">
            <mxPoint x="756.97" y="554" as="sourcePoint" />
            <mxPoint x="757.97" y="493" as="targetPoint" />
          </mxGeometry>
        </mxCell>
        <mxCell id="SrVnToK5ww4ijatAAMLY-45" value="" style="endArrow=classic;html=1;rounded=0;entryX=0.5;entryY=1;entryDx=0;entryDy=0;exitX=0.5;exitY=0;exitDx=0;exitDy=0;strokeWidth=4;strokeColor=#9C9C9C;" parent="1" edge="1">
          <mxGeometry width="50" height="50" relative="1" as="geometry">
            <mxPoint x="1003.97" y="554" as="sourcePoint" />
            <mxPoint x="1004.97" y="493" as="targetPoint" />
          </mxGeometry>
        </mxCell>
        <mxCell id="SrVnToK5ww4ijatAAMLY-46" value="" style="curved=1;endArrow=classic;html=1;rounded=0;entryX=0;entryY=0.5;entryDx=0;entryDy=0;strokeWidth=4;strokeColor=#08FF18;" parent="1" target="SrVnToK5ww4ijatAAMLY-30" edge="1">
          <mxGeometry width="50" height="50" relative="1" as="geometry">
            <mxPoint x="1164" y="208" as="sourcePoint" />
            <mxPoint x="1150" y="227" as="targetPoint" />
            <Array as="points">
              <mxPoint x="1164" y="323" />
              <mxPoint x="1164" y="356" />
              <mxPoint x="1164" y="379" />
            </Array>
          </mxGeometry>
        </mxCell>
        <mxCell id="SrVnToK5ww4ijatAAMLY-50" style="edgeStyle=orthogonalEdgeStyle;rounded=0;orthogonalLoop=1;jettySize=auto;html=1;exitX=0.5;exitY=1;exitDx=0;exitDy=0;strokeWidth=4;strokeColor=#CC4EBB;" parent="1" source="SrVnToK5ww4ijatAAMLY-47" edge="1">
          <mxGeometry relative="1" as="geometry">
            <mxPoint x="1471" y="516" as="targetPoint" />
            <Array as="points">
              <mxPoint x="1272" y="516" />
              <mxPoint x="1432" y="516" />
            </Array>
          </mxGeometry>
        </mxCell>
        <mxCell id="SrVnToK5ww4ijatAAMLY-47" value="&lt;b&gt;&lt;font style=&quot;font-size: 16px;&quot;&gt;X&lt;/font&gt;&lt;/b&gt;" style="rounded=0;whiteSpace=wrap;html=1;" parent="1" vertex="1">
          <mxGeometry x="1250.5" y="439.5" width="44" height="47" as="geometry" />
        </mxCell>
        <mxCell id="SrVnToK5ww4ijatAAMLY-52" value="" style="rounded=0;whiteSpace=wrap;html=1;fillColor=none;" parent="1" vertex="1">
          <mxGeometry x="138" y="155" width="689" height="134" as="geometry" />
        </mxCell>
        <mxCell id="SrVnToK5ww4ijatAAMLY-53" value="&lt;b&gt;&lt;font style=&quot;font-size: 17px;&quot;&gt;Cell State&lt;/font&gt;&lt;/b&gt;" style="text;html=1;align=center;verticalAlign=middle;whiteSpace=wrap;rounded=0;fillColor=#fad7ac;strokeColor=#b46504;" parent="1" vertex="1">
          <mxGeometry x="418" y="167" width="104" height="30" as="geometry" />
        </mxCell>
        <mxCell id="SrVnToK5ww4ijatAAMLY-54" value="" style="rounded=0;whiteSpace=wrap;html=1;fillColor=none;" parent="1" vertex="1">
          <mxGeometry x="193" y="382" width="141" height="277" as="geometry" />
        </mxCell>
        <mxCell id="SrVnToK5ww4ijatAAMLY-55" value="&lt;b&gt;&lt;font style=&quot;font-size: 16px;&quot;&gt;Forget Gate&lt;/font&gt;&lt;/b&gt;" style="text;html=1;align=center;verticalAlign=middle;whiteSpace=wrap;rounded=0;fillColor=#fad7ac;strokeColor=#b46504;" parent="1" vertex="1">
          <mxGeometry x="217.87" y="395" width="95.25" height="20" as="geometry" />
        </mxCell>
        <mxCell id="SrVnToK5ww4ijatAAMLY-56" value="" style="rounded=0;whiteSpace=wrap;html=1;fillColor=none;" parent="1" vertex="1">
          <mxGeometry x="393" y="312" width="504" height="372" as="geometry" />
        </mxCell>
        <mxCell id="SrVnToK5ww4ijatAAMLY-57" value="&lt;b&gt;&lt;font style=&quot;font-size: 16px;&quot;&gt;Input Gate&lt;/font&gt;&lt;/b&gt;" style="text;html=1;align=center;verticalAlign=middle;whiteSpace=wrap;rounded=0;fillColor=#fad7ac;strokeColor=#b46504;" parent="1" vertex="1">
          <mxGeometry x="659" y="320" width="102" height="36" as="geometry" />
        </mxCell>
        <mxCell id="SrVnToK5ww4ijatAAMLY-58" value="" style="rounded=0;whiteSpace=wrap;html=1;fillColor=none;" parent="1" vertex="1">
          <mxGeometry x="907" y="247" width="508" height="448" as="geometry" />
        </mxCell>
        <mxCell id="SrVnToK5ww4ijatAAMLY-59" value="&lt;font style=&quot;font-size: 16px;&quot;&gt;&lt;b&gt;Output Gate&lt;/b&gt;&lt;/font&gt;" style="text;html=1;align=center;verticalAlign=middle;whiteSpace=wrap;rounded=0;fillColor=#fad7ac;strokeColor=#b46504;" parent="1" vertex="1">
          <mxGeometry x="1027" y="283" width="107" height="30" as="geometry" />
        </mxCell>
        <mxCell id="SrVnToK5ww4ijatAAMLY-60" value="&lt;b style=&quot;font-size: 16px;&quot;&gt;h&lt;sub&gt;t&lt;/sub&gt;&lt;/b&gt;" style="text;html=1;align=center;verticalAlign=middle;whiteSpace=wrap;rounded=0;" parent="1" vertex="1">
          <mxGeometry x="1412" y="484" width="60" height="30" as="geometry" />
        </mxCell>
        <mxCell id="r6pnA88E2rCMwIJ0PYZ4-1" value="" style="endArrow=classic;html=1;rounded=0;strokeWidth=4;strokeColor=#9C9C9C;" edge="1" parent="1">
          <mxGeometry width="50" height="50" relative="1" as="geometry">
            <mxPoint x="515" y="708" as="sourcePoint" />
            <mxPoint x="515" y="596" as="targetPoint" />
          </mxGeometry>
        </mxCell>
        <mxCell id="r6pnA88E2rCMwIJ0PYZ4-2" value="" style="endArrow=classic;html=1;rounded=0;strokeWidth=4;strokeColor=#9C9C9C;" edge="1" parent="1">
          <mxGeometry width="50" height="50" relative="1" as="geometry">
            <mxPoint x="759" y="709" as="sourcePoint" />
            <mxPoint x="759" y="597" as="targetPoint" />
          </mxGeometry>
        </mxCell>
        <mxCell id="r6pnA88E2rCMwIJ0PYZ4-6" value="&lt;b&gt;&lt;font color=&quot;#6666ff&quot; style=&quot;font-size: 24px;&quot;&gt;LSTM Cell&lt;/font&gt;&lt;/b&gt;" style="text;html=1;align=center;verticalAlign=middle;whiteSpace=wrap;rounded=0;" vertex="1" parent="1">
          <mxGeometry x="654" y="826" width="220" height="30" as="geometry" />
        </mxCell>
        <mxCell id="r6pnA88E2rCMwIJ0PYZ4-7" value="&lt;b&gt;x WFF&lt;/b&gt;" style="text;html=1;align=center;verticalAlign=middle;whiteSpace=wrap;rounded=0;" vertex="1" parent="1">
          <mxGeometry x="265" y="606" width="60" height="30" as="geometry" />
        </mxCell>
        <mxCell id="r6pnA88E2rCMwIJ0PYZ4-8" value="&lt;b&gt;x WFI&lt;/b&gt;" style="text;html=1;align=center;verticalAlign=middle;whiteSpace=wrap;rounded=0;" vertex="1" parent="1">
          <mxGeometry x="512" y="606" width="60" height="30" as="geometry" />
        </mxCell>
        <mxCell id="r6pnA88E2rCMwIJ0PYZ4-9" value="&lt;b&gt;x WFC&lt;/b&gt;&lt;span style=&quot;color: rgba(0, 0, 0, 0); font-family: monospace; font-size: 0px; text-align: start; text-wrap: nowrap;&quot;&gt;%3CmxGraphModel%3E%3Croot%3E%3CmxCell%20id%3D%220%22%2F%3E%3CmxCell%20id%3D%221%22%20parent%3D%220%22%2F%3E%3CmxCell%20id%3D%222%22%20value%3D%22%26lt%3Bb%26gt%3Bx%20WFF%26lt%3B%2Fb%26gt%3B%22%20style%3D%22text%3Bhtml%3D1%3Balign%3Dcenter%3BverticalAlign%3Dmiddle%3BwhiteSpace%3Dwrap%3Brounded%3D0%3B%22%20vertex%3D%221%22%20parent%3D%221%22%3E%3CmxGeometry%20x%3D%22265%22%20y%3D%22606%22%20width%3D%2260%22%20height%3D%2230%22%20as%3D%22geometry%22%2F%3E%3C%2FmxCell%3E%3C%2Froot%3E%3C%2FmxGraphModel%3E&lt;/span&gt;" style="text;html=1;align=center;verticalAlign=middle;whiteSpace=wrap;rounded=0;" vertex="1" parent="1">
          <mxGeometry x="761" y="606" width="60" height="30" as="geometry" />
        </mxCell>
        <mxCell id="r6pnA88E2rCMwIJ0PYZ4-10" value="&lt;b&gt;x WFO&lt;/b&gt;" style="text;html=1;align=center;verticalAlign=middle;whiteSpace=wrap;rounded=0;" vertex="1" parent="1">
          <mxGeometry x="1001" y="616" width="60" height="30" as="geometry" />
        </mxCell>
      </root>
    </mxGraphModel>
  </diagram>
</mxfile>
